<?xml version="1.0" standalone="no"?><svg xmlns="http://www.w3.org/2000/svg" viewBox="0 0 1440 320"><path fill="#ffffff" fill-opacity="1" d="M0,64L16,80C32,96,64,128,96,154.7C128,181,160,203,192,218.7C224,235,256,245,288,240C320,235,352,213,384,186.7C416,160,448,128,480,138.7C512,149,544,203,576,229.3C608,256,640,256,672,224C704,192,736,128,768,112C800,96,832,128,864,154.7C896,181,928,203,960,176C992,149,1024,75,1056,69.3C1088,64,1120,128,1152,170.7C1184,213,1216,235,1248,229.3C1280,224,1312,192,1344,154.7C1376,117,1408,75,1424,53.3L1440,32L1440,320L1424,320C1408,320,1376,320,1344,320C1312,320,1280,320,1248,320C1216,320,1184,320,1152,320C1120,320,1088,320,1056,320C1024,320,992,320,960,320C928,320,896,320,864,320C832,320,800,320,768,320C736,320,704,320,672,320C640,320,608,320,576,320C544,320,512,320,480,320C448,320,416,320,384,320C352,320,320,320,288,320C256,320,224,320,192,320C160,320,128,320,96,320C64,320,32,320,16,320L0,320Z"></path></svg>